HIERARCHY
ROOT Hips
{
	OFFSET 0.000000 89.005402 0.000000
	CHANNELS 6 Xposition Yposition Zposition Xrotation Yrotation Zrotation
	JOINT Spine
	{
		OFFSET 0.116900 10.681000 0.373400
		CHANNELS 3 Xrotation Yrotation Zrotation
		JOINT Spine1
		{
			OFFSET 0.000000 13.840401 0.053500
			CHANNELS 3 Xrotation Yrotation Zrotation
			JOINT Spine2
			{
				OFFSET 0.000000 14.712700 -0.366200
				CHANNELS 3 Xrotation Yrotation Zrotation
				JOINT Neck
				{
					OFFSET 0.000000 35.415497 -3.314200
					CHANNELS 3 Xrotation Yrotation Zrotation
					JOINT Head
					{
						OFFSET 0.000000 16.899200 1.218300
						CHANNELS 3 Xrotation Yrotation Zrotation
						JOINT HeadTop_End
						{
							OFFSET 0.000000 22.206207 2.192500
							CHANNELS 3 Xrotation Yrotation Zrotation
							End Site
							{
								OFFSET 0.000000 22.314178 0.000000
							}
						}
					}
				}
				JOINT LeftShoulder
				{
					OFFSET 12.896400 26.716293 -4.548400
					CHANNELS 3 Xrotation Yrotation Zrotation
					JOINT LeftArm
					{
						OFFSET 19.027000 -4.857010 -1.718400
						CHANNELS 3 Xrotation Yrotation Zrotation
						JOINT LeftForeArm
						{
							OFFSET 24.179897 0.000000 0.000000
							CHANNELS 3 Xrotation Yrotation Zrotation
							JOINT LeftHand
							{
								OFFSET 27.156403 0.000000 0.000000
								CHANNELS 3 Xrotation Yrotation Zrotation
								JOINT LeftHandIndex1
								{
									OFFSET 16.441200 0.000000 0.000000
									CHANNELS 3 Xrotation Yrotation Zrotation
									JOINT LeftHandIndex2
									{
										OFFSET 4.821899 0.000000 0.000000
										CHANNELS 3 Xrotation Yrotation Zrotation
										JOINT LeftHandIndex3
										{
											OFFSET 6.386497 0.000000 0.000000
											CHANNELS 3 Xrotation Yrotation Zrotation
											JOINT LeftHandIndex4
											{
												OFFSET 5.188988 0.000000 0.000000
												CHANNELS 3 Xrotation Yrotation Zrotation
												End Site
												{
													OFFSET -0.178703 5.185913 0.000177
												}
											}
										}
									}
								}
								JOINT LeftHandThumb1
								{
									OFFSET 6.534897 -5.032593 5.900300
									CHANNELS 3 Xrotation Yrotation Zrotation
									JOINT LeftHandThumb2
									{
										OFFSET 3.818176 -2.204422 2.204423
										CHANNELS 3 Xrotation Yrotation Zrotation
										JOINT LeftHandThumb3
										{
											OFFSET 3.252098 -1.877594 1.877601
											CHANNELS 3 Xrotation Yrotation Zrotation
											JOINT LeftHandThumb4
											{
												OFFSET 5.251778 -3.032120 3.032117
												CHANNELS 3 Xrotation Yrotation Zrotation
												End Site
												{
													OFFSET 0.000023 6.780014 0.000000
												}
											}
										}
									}
								}
							}
						}
					}
				}
				JOINT RightShoulder
				{
					OFFSET -12.896300 26.716293 -4.548400
					CHANNELS 3 Xrotation Yrotation Zrotation
					JOINT RightArm
					{
						OFFSET -19.027000 -4.857010 -1.718400
						CHANNELS 3 Xrotation Yrotation Zrotation
						JOINT RightForeArm
						{
							OFFSET -24.179897 0.000000 0.000000
							CHANNELS 3 Xrotation Yrotation Zrotation
							JOINT RightHand
							{
								OFFSET -27.156403 0.000000 0.000000
								CHANNELS 3 Xrotation Yrotation Zrotation
								JOINT RightHandThumb1
								{
									OFFSET -6.591202 -4.852203 5.988100
									CHANNELS 3 Xrotation Yrotation Zrotation
									JOINT RightHandThumb2
									{
										OFFSET -3.818176 -2.204422 2.204423
										CHANNELS 3 Xrotation Yrotation Zrotation
										JOINT RightHandThumb3
										{
											OFFSET -3.252098 -1.877594 1.877601
											CHANNELS 3 Xrotation Yrotation Zrotation
											JOINT RightHandThumb4
											{
												OFFSET -5.251778 -3.032120 3.032117
												CHANNELS 3 Xrotation Yrotation Zrotation
												End Site
												{
													OFFSET -0.000023 6.780014 0.000000
												}
											}
										}
									}
								}
								JOINT RightHandIndex1
								{
									OFFSET -16.029404 0.000000 0.000000
									CHANNELS 3 Xrotation Yrotation Zrotation
									JOINT RightHandIndex2
									{
										OFFSET -5.213303 0.000000 0.000000
										CHANNELS 3 Xrotation Yrotation Zrotation
										JOINT RightHandIndex3
										{
											OFFSET -6.386528 0.000000 0.000000
											CHANNELS 3 Xrotation Yrotation Zrotation
											JOINT RightHandIndex4
											{
												OFFSET -5.189026 0.000000 0.000000
												CHANNELS 3 Xrotation Yrotation Zrotation
												End Site
												{
													OFFSET 0.236702 5.183624 0.001972
												}
											}
										}
									}
								}
							}
						}
					}
				}
			}
		}
	}
	JOINT LeftUpLeg
	{
		OFFSET 14.073000 -7.904099 -1.463000
		CHANNELS 3 Xrotation Yrotation Zrotation
		JOINT LeftLeg
		{
			OFFSET -0.109806 -34.073280 4.093200
			CHANNELS 3 Xrotation Yrotation Zrotation
			JOINT LeftFoot
			{
				OFFSET 0.109806 -29.899420 -6.319000
				CHANNELS 3 Xrotation Yrotation Zrotation
				JOINT LeftToeBase
				{
					OFFSET 1.551100 -14.988700 20.535801
					CHANNELS 3 Xrotation Yrotation Zrotation
					JOINT LeftToe_End
					{
						OFFSET 0.221200 0.570800 13.248301
						CHANNELS 3 Xrotation Yrotation Zrotation
						End Site
						{
							OFFSET 0.000000 13.262435 0.000000
						}
					}
				}
			}
		}
	}
	JOINT RightUpLeg
	{
		OFFSET -13.839300 -7.904099 -1.463000
		CHANNELS 3 Xrotation Yrotation Zrotation
		JOINT RightLeg
		{
			OFFSET 0.109694 -34.073219 4.093300
			CHANNELS 3 Xrotation Yrotation Zrotation
			JOINT RightFoot
			{
				OFFSET -0.109694 -29.899384 -6.319200
				CHANNELS 3 Xrotation Yrotation Zrotation
				JOINT RightToeBase
				{
					OFFSET -1.551100 -14.988700 20.535801
					CHANNELS 3 Xrotation Yrotation Zrotation
					JOINT RightToe_End
					{
						OFFSET -0.221200 0.570900 13.248299
						CHANNELS 3 Xrotation Yrotation Zrotation
						End Site
						{
							OFFSET 0.000000 13.262440 0.000000
						}
					}
				}
			}
		}
	}
}
MOTION
Frames: 7
Frame Time: 0.033333
-4.643230 77.716393 0.024465 43.348526 -68.070102 43.703816 7.797489 3.408252 4.545009 12.707904 6.406379 6.655397 12.728339 6.436519 6.586113 3.383300 -0.460221 2.258561 8.870673 1.648098 -4.487686 0.000001 -0.000001 0.000000 0.618055 -2.107604 -11.581031 -46.447404 -28.850914 -92.587183 0.000005 -20.859094 0.000011 -20.174470 18.972367 30.596413 -3.643677 -5.208160 -23.541270 5.723179 5.849673 -88.745317 5.723174 5.849657 -88.745269 0.000000 -0.000000 0.000000 55.682656 -2.117571 45.305563 81.950345 -1.423287 50.782470 -10.247772 17.984645 1.554700 -0.000001 0.000001 -0.000001 -0.784463 15.466881 22.252700 -56.158758 25.007484 77.069225 0.000003 0.023209 0.000006 -12.877938 -7.610810 2.871581 -5.866192 4.446116 -27.465675 0.697261 -40.089150 14.640046 2.727494 -6.739202 -25.278376 -0.000001 0.000001 -0.000001 -2.857591 -16.672237 -11.849124 4.400808 -4.650140 86.840972 4.400824 -4.650116 86.841115 0.000004 -0.000000 -0.000001 -51.903943 1.930967 -2.110963 44.908757 -9.608955 1.628706 -9.657885 -0.611889 -0.267784 -0.379286 1.642735 -1.202607 -0.000000 -0.000000 -0.000000 -42.024839 -4.532191 -19.893249 47.144636 -3.568624 -1.858493 -17.737776 -3.855699 16.211995 -1.799725 -0.000003 -0.000005 0.000000 -0.000000 0.000000 
-4.612751 77.770981 -0.091008 43.015743 -68.045842 43.401436 7.899775 3.415530 4.528786 12.759843 6.402262 6.618654 12.779563 6.428306 6.556420 3.353452 -0.381522 2.347962 8.606332 2.055220 -4.783017 0.000001 0.000000 -0.000001 0.616603 -2.165338 -11.450447 -46.651712 -28.830170 -92.484395 -0.000010 -20.854091 -0.000002 -20.299464 19.172081 30.034384 -3.643678 -5.208172 -23.541270 5.723155 5.849678 -88.745310 5.723171 5.849673 -88.745297 -0.000000 0.000000 -0.000001 55.682714 -2.117245 45.305871 81.950345 -1.423280 50.782450 -10.247787 17.984634 1.554695 -0.000001 -0.000000 -0.000001 -0.765908 15.401761 22.170726 -54.959329 24.949359 76.394990 0.000016 1.949029 -0.000010 -12.919984 -7.511972 2.733509 -5.196103 3.512803 -27.504711 1.155752 -40.542111 14.938162 2.688376 -6.405276 -25.475965 -0.000001 0.000000 -0.000001 -2.784913 -16.648026 -11.596568 4.370705 -4.648375 86.469539 4.370708 -4.648383 86.469689 0.000000 0.000000 0.000001 -51.764969 1.926799 -2.058906 44.649572 -9.738838 1.640148 -9.474341 -0.608832 -0.366697 -0.401556 1.601348 -1.164318 -0.000000 0.000001 -0.000000 -41.932324 -4.597527 -19.849959 47.093324 -3.658975 -1.839931 -17.717188 -3.832899 16.127236 -1.798467 0.000027 0.000000 0.000000 -0.000000 -0.000000 
-4.591379 77.832184 -0.155280 42.653770 -68.028390 43.072949 8.005366 3.410518 4.518225 12.807844 6.371649 6.591288 12.826975 6.393179 6.536504 3.332203 -0.297261 2.404139 8.365228 2.417414 -5.016338 -0.000002 0.000000 0.000000 0.614449 -2.173732 -11.322212 -46.877685 -28.769180 -92.428579 0.000009 -20.797045 -0.000002 -20.246595 19.297190 29.413161 -3.643683 -5.208138 -23.541266 5.723192 5.849662 -88.745331 5.723153 5.849651 -88.745269 -0.000000 0.000000 -0.000000 55.682721 -2.116868 45.306154 81.950338 -1.423295 50.782439 -10.247785 17.984636 1.554700 0.000002 0.000001 -0.000001 -0.747248 15.378162 22.055185 -54.124973 24.965634 75.855630 -0.000004 3.156473 0.000002 -12.956416 -7.077256 2.734504 -4.518212 2.534243 -27.533196 1.695855 -41.048870 15.318224 2.638606 -6.023615 -25.736713 0.000003 -0.000004 -0.000000 -2.703897 -16.643018 -11.299372 4.354449 -4.647351 86.269005 4.354456 -4.647350 86.269169 -0.000004 -0.000001 0.000002 -51.589409 1.931925 -2.083404 44.396462 -9.825045 1.669140 -9.307991 -0.612271 -0.424901 -0.390420 1.561783 -1.136654 -0.000000 0.000000 -0.000000 -41.785550 -4.663188 -19.851988 46.986152 -3.747176 -1.826272 -17.673791 -3.802571 16.093418 -1.787347 0.000012 0.000003 -0.000000 0.000001 0.000000 
-4.573528 77.887054 -0.227254 42.330497 -68.027639 42.797477 8.118258 3.418822 4.506543 12.857468 6.368524 6.563266 12.875765 6.385335 6.516554 3.317545 -0.219069 2.456646 8.078862 2.732093 -5.233620 -0.000003 -0.000000 0.000001 0.613168 -2.191747 -11.244931 -47.126178 -28.831666 -92.347177 0.000003 -20.758651 -0.000003 -20.209362 19.506303 28.899176 -3.643680 -5.208149 -23.541270 5.723182 5.849657 -88.745324 5.723171 5.849668 -88.745297 -0.000000 0.000000 0.000003 55.682765 -2.116527 45.306455 81.950345 -1.423298 50.782433 -10.247778 17.984629 1.554691 -0.000000 -0.000001 -0.000001 -0.727371 15.331466 21.949470 -53.283320 25.029105 75.292105 -0.000015 4.414899 0.000008 -13.016460 -6.673686 2.716578 -3.877672 1.682110 -27.532575 2.180120 -41.495739 15.648496 2.592455 -5.658580 -25.947651 -0.000001 -0.000003 0.000002 -2.644055 -16.670496 -11.059902 4.337182 -4.646194 86.055964 4.337198 -4.646197 86.056162 -0.000003 -0.000001 0.000001 -51.412856 1.888596 -2.134997 44.159502 -9.827352 1.731234 -9.165815 -0.611846 -0.541676 -0.414178 1.535005 -1.109315 -0.000000 -0.000001 0.000000 -41.656152 -4.695198 -19.827225 46.906167 -3.871919 -1.856687 -17.637792 -3.762962 16.089853 -1.792546 -0.000016 0.000002 0.000000 -0.000000 0.000000 
-4.553211 77.943665 -0.301446 42.025703 -68.041115 42.538674 8.237178 3.422492 4.496040 12.910831 6.356619 6.541005 12.928332 6.368320 6.502726 3.303917 -0.136480 2.501375 7.793920 3.054613 -5.491954 -0.000000 -0.000003 0.000002 0.611960 -2.202208 -11.179482 -47.301533 -28.891605 -92.220237 -0.000002 -20.846893 -0.000022 -20.285044 19.722542 28.361005 -3.643681 -5.208143 -23.541260 5.723193 5.849663 -88.745304 5.723179 5.849666 -88.745290 0.000000 -0.000000 -0.000001 55.682779 -2.116164 45.306755 81.950345 -1.423275 50.782443 -10.247791 17.984636 1.554698 0.000000 -0.000000 -0.000000 -0.698882 15.300939 21.753179 -52.753608 25.181140 74.905373 -0.000007 5.116828 -0.000001 -13.094118 -5.995542 2.758662 -3.262457 0.854442 -27.520273 2.710581 -41.987369 16.039724 2.516153 -5.242306 -26.202557 0.000001 0.000000 0.000001 -2.543900 -16.661736 -10.692083 4.314708 -4.644602 85.778440 4.314728 -4.644603 85.778631 -0.000005 -0.000001 -0.000000 -51.231179 1.881316 -2.145949 43.919038 -9.858045 1.759517 -9.020186 -0.627256 -0.629046 -0.430789 1.503346 -1.080116 0.000000 -0.000000 0.000000 -41.538215 -4.750368 -19.806167 46.818597 -3.972133 -1.883094 -17.592844 -3.704907 16.067021 -1.799086 0.000004 0.000003 -0.000000 0.000000 0.000000 
-4.535643 78.004211 -0.385729 41.631150 -68.034073 42.200877 8.363310 3.411479 4.491453 12.972831 6.311769 6.522971 12.989694 6.318256 6.493310 3.290414 -0.042302 2.553924 7.520724 3.447453 -5.815880 0.000002 -0.000001 -0.000000 0.609583 -2.234402 -11.001866 -47.451537 -28.838333 -92.152222 0.000003 -20.974929 0.000005 -20.347089 19.955043 27.843312 -3.643672 -5.208166 -23.541270 5.723159 5.849669 -88.745317 5.723164 5.849675 -88.745297 0.000000 -0.000000 -0.000000 55.682817 -2.115821 45.307042 81.950345 -1.423285 50.782433 -10.247770 17.984639 1.554688 0.000000 0.000000 -0.000002 -0.675621 15.297481 21.582276 -52.278319 25.434740 74.522760 0.000009 5.696768 -0.000010 -13.178783 -5.256821 2.804022 -2.660584 0.023772 -27.496030 3.270151 -42.496911 16.465026 2.435333 -4.807038 -26.476381 -0.000001 -0.000003 0.000002 -2.439760 -16.654021 -10.306902 4.299406 -4.643439 85.589544 4.299427 -4.643455 85.589743 0.000001 -0.000000 0.000001 -51.028207 1.881477 -2.170073 43.649553 -9.918154 1.789648 -8.852927 -0.647209 -0.716777 -0.438923 1.477771 -1.058005 -0.000000 0.000000 0.000000 -41.396947 -4.815879 -19.795715 46.737478 -4.105435 -1.914783 -17.562228 -3.642019 16.055075 -1.809323 0.000006 0.000001 0.000000 -0.000000 -0.000000 
-4.518936 78.059601 -0.478415 41.240286 -68.016540 41.889188 8.492305 3.423048 4.476229 13.033165 6.311497 6.483785 13.049001 6.312703 6.463199 3.276598 0.032675 2.627423 7.213276 3.750059 -6.059066 0.000002 0.000000 -0.000001 0.608193 -2.292599 -10.867638 -47.676339 -28.948684 -92.055527 -0.000000 -21.029229 0.000004 -20.250813 20.067167 27.291747 -3.643681 -5.208151 -23.541249 5.723179 5.849669 -88.745310 5.723166 5.849668 -88.745290 -0.000001 -0.000000 0.000001 55.682851 -2.115479 45.307350 81.950358 -1.423279 50.782446 -10.247776 17.984643 1.554702 0.000003 -0.000001 0.000000 -0.659066 15.168013 21.578944 -51.295055 25.609378 73.851557 -0.000002 7.270812 0.000005 -13.183336 -4.999355 2.726780 -2.055798 -0.808085 -27.453037 3.773381 -42.938903 16.822095 2.381324 -4.393480 -26.700287 -0.000000 -0.000004 0.000002 -2.368744 -16.639507 -10.048346 4.273207 -4.641356 85.265718 4.273227 -4.641353 85.265916 0.000004 -0.000001 -0.000001 -50.830562 1.869793 -2.217968 43.370837 -9.947007 1.826729 -8.682125 -0.674067 -0.827915 -0.417499 1.471522 -1.059038 -0.000000 0.000000 -0.000000 -41.277989 -4.852096 -19.788499 46.689356 -4.267398 -1.968799 -17.545115 -3.580409 16.063953 -1.826816 -0.000024 0.000002 0.000000 0.000000 0.000000 
